<?xml version="1.0" encoding="UTF-8" standalone="no"?>
<svg
   xmlns:dc="http://purl.org/dc/elements/1.1/"
   xmlns:cc="http://creativecommons.org/ns#"
   xmlns:rdf="http://www.w3.org/1999/02/22-rdf-syntax-ns#"
   xmlns:svg="http://www.w3.org/2000/svg"
   xmlns="http://www.w3.org/2000/svg"
   xmlns:sodipodi="http://sodipodi.sourceforge.net/DTD/sodipodi-0.dtd"
   xmlns:inkscape="http://www.inkscape.org/namespaces/inkscape"
   viewBox="0 0 736.58752 600.38751"
   height="600.38751"
   width="736.58752"
   xml:space="preserve"
   version="1.1"
   id="svg2"
   inkscape:version="0.91 r13725"
   sodipodi:docname="Aguia-toledo.svg"><sodipodi:namedview
     pagecolor="#ffffff"
     bordercolor="#666666"
     borderopacity="1"
     objecttolerance="10"
     gridtolerance="10"
     guidetolerance="10"
     inkscape:pageopacity="0"
     inkscape:pageshadow="2"
     inkscape:window-width="1440"
     inkscape:window-height="844"
     id="namedview8"
     showgrid="false"
     inkscape:zoom="0.39307946"
     inkscape:cx="375.92581"
     inkscape:cy="300.19376"
     inkscape:window-x="0"
     inkscape:window-y="27"
     inkscape:window-maximized="1"
     inkscape:current-layer="svg2" /><metadata
     id="metadata8"><rdf:RDF><cc:Work
         rdf:about=""><dc:format>image/svg+xml</dc:format><dc:type
           rdf:resource="http://purl.org/dc/dcmitype/StillImage" /><dc:title></dc:title></cc:Work></rdf:RDF></metadata><defs
     id="defs6" /><g
     transform="matrix(1.25,0,0,-1.25,0,600.3875)"
     id="g10"><g
       transform="scale(0.1,0.1)"
       id="g12"><path
         id="path14"
         style="fill:#231f20;fill-opacity:1;fill-rule:nonzero;stroke:none"
         d="m 3447.52,3.37891 c 236.2,29.76949 386.32,90.55079 517.94,187.42209 l -409.49,729.211 c -34.99,62.308 -10.91,140.998 53.53,174.838 64.45,33.85 145.8,10.55 180.8,-51.77 l 421.54,-750.658 c 22.71,10.578 45.28,21.41 67.66,32.519 21.25,10.551 42.36,21.34 63.31,32.379 20.94,11.032 41.72,22.309 62.41,33.801 20.64,11.5 41.1,23.238 61.43,35.231 20.32,11.957 40.5,24.168 60.52,36.558 19.99,12.43 39.83,25.102 59.54,37.969 19.66,12.871 39.16,25.953 58.49,39.293 19.34,13.308 38.5,26.797 57.47,40.578 19.01,13.719 37.83,27.719 56.46,41.879 12.62,9.601 25.15,19.32 37.62,29.121 L 3564,1610.23 c -57.15,44.42 -66.32,126 -20.37,181.27 45.95,55.28 130.3,64.14 187.44,19.72 L 4998.59,825.699 c 8.77,8.262 17.47,16.563 26.12,24.91 16.72,16.2 33.3,32.602 49.67,49.18 16.28,16.512 32.45,33.34 48.35,50.293 15.95,16.949 31.66,34.047 47.19,51.358 15.51,17.32 30.84,34.83 45.88,52.5 15.14,17.67 29.99,35.51 44.66,53.54 14.64,18.02 29.1,36.2 43.31,54.57 14.24,18.37 28.19,36.93 41.97,55.61 12.88,17.46 25.57,35.08 38,52.84 l -1817.5,923.98 c -57.22,29.09 -79.43,98.17 -49.34,153.5 l 14.7,27.04 c 30.07,55.35 101.49,76.82 158.72,47.73 l 1833.4,-932.05 c 3.71,6.45 7.4,12.91 11.06,19.42 11.41,20.27 22.54,40.66 33.51,61.22 10.91,20.56 21.55,41.23 31.96,62.09 10.38,20.79 20.56,41.8 30.48,62.91 9.88,21.1 19.51,42.35 28.87,63.74 49.99,113.92 92.53,231.62 127.05,352.48 l -2213.82,594.11 c -62.29,16.72 -98.84,79.99 -81.37,140.18 l 8.55,29.41 c 17.47,60.19 82.64,95.41 144.94,78.7 l 2200.98,-590.69 c 30.69,164.76 46.74,334.31 46.74,507.41 0,24.12 -0.32,48.15 -0.94,72.15 l -0.14,4.62 c -0.64,22.55 -1.54,45.03 -2.67,67.39 l -0.41,6.85 c -0.47,9.1 -1.01,18.17 -1.59,27.24 l -2254.7,206.16 c -64.37,5.88 -111.84,61.97 -105.55,124.2 l 3.07,30.4 c 6.28,62.22 64.05,107.95 128.41,102.08 l 2199.43,-201.12 c -3.37,20.85 -6.94,41.64 -10.76,62.33 l -0.76,4.26 c -4.19,22.39 -8.61,44.69 -13.33,66.92 l -0.99,4.71 c -4.61,21.49 -9.46,42.87 -14.53,64.15 l -1.6,6.76 c -4.91,20.31 -10.08,40.58 -15.42,60.7 l -2.42,9 c -5.27,19.57 -10.75,39.07 -16.42,58.46 l -2.81,9.43 c -5.62,18.98 -11.47,37.88 -17.49,56.71 l -3.48,10.84 c -6.05,18.56 -12.27,37.06 -18.69,55.48 l -3.67,10.42 -7.49,20.94 -2078.57,14.7 c -64.64,0.45 -116.96,52.34 -116.3,114.85 l 0.33,30.55 c 0.68,62.52 54.12,112.93 118.77,112.47 l 1967.07,-13.91 c -5.39,11.22 -10.82,22.42 -16.36,33.56 l -6.12,12.17 c -8.23,16.39 -16.65,32.73 -25.24,48.94 l -6.72,12.68 c -8.51,15.93 -17.16,31.8 -26.01,47.55 l -7.27,12.99 c -8.95,15.76 -18.05,31.41 -27.27,47.04 l -7.34,12.36 c -9.38,15.65 -18.9,31.21 -28.58,46.67 l -7.38,11.82 c -10.09,15.99 -20.37,31.85 -30.79,47.62 l -7.91,11.96 c -10.5,15.72 -21.12,31.36 -31.94,46.88 l -8.96,12.76 c -10.64,15.07 -21.31,30.02 -32.19,44.87 l -9.07,12.23 c -10.47,14.08 -21.05,28.13 -31.78,42.03 l -10.46,13.47 c -10.52,13.55 -21.23,27 -31.99,40.34 -3.65,4.53 -7.35,9.06 -11.08,13.54 -10.7,13.15 -21.57,26.17 -32.56,39.12 l -11.56,13.6 c -11.01,12.82 -22.18,25.55 -33.41,38.18 -4.04,4.49 -7.99,8.98 -12,13.39 -11.54,12.86 -23.22,25.55 -35.05,38.17 -3.61,3.91 -7.2,7.81 -10.86,11.68 l -615.09,0 c -655.94,25.16 -1477.43,8.87 -1496.49,-820.56 l 6.35,-1027.73 c -27.44,-152.2 -9.76,-708.7 -1045.07,-765.56 -1248.34,24.02 -1386.062,1194.97 -348.07,1404.68 358.74,72.51 785.84,77.94 783.65,-189.25 0,0 185.32,244.09 185.32,441.26 0,197.12 -240.89,215.04 -240.89,215.04 l -333.57,-35.8 -3.63,5.79 -4.57,-4.32 1.26,-2.14 -5.65,-1.91 c -40.96,-37.21 -104.91,-82.15 -176.97,-89.32 -71.11,-7.08 -129.79,41.87 -129.79,93.21 0,51.34 58.3,93.21 129.79,93.21 29.6,0 82.98,-2.02 130.4,-9.02 -241.5,308.7 -623.17,355.39 -1047.123,195.27 C 367.727,4033.15 79.082,3707.78 0,3191.71 L 2.39844,0 3447.52,3.37891 l 0,0" /></g></g><path
     style="fill:#ffffff"
     d="m 0.42921024,400.97208 c 0,-174.23533 0.50802908,-200.97784 4.09586596,-215.60526 C 16.173032,137.87871 44.506924,103.37789 95.829768,74.189475 142.12825,47.858524 188.62127,45.995606 222.40889,69.117603 c 18.97784,12.987168 20.88786,16.8701 8.29842,16.8701 -12.55029,0 -19.12486,3.946126 -19.12486,11.478928 0,13.696739 17.78734,17.187099 32.91702,6.459219 7.87725,-5.585454 46.15192,-10.476592 57.58442,-7.358734 22.09223,6.024974 25.52822,25.893334 9.93448,57.445154 l -9.31252,18.8426 -4.22146,-8.45338 c -6.85332,-13.72359 -19.85654,-18.44973 -50.01373,-18.17791 -61.15028,0.55118 -110.4171,23.58549 -126.90369,59.33282 -7.55414,16.37937 -7.29798,45.33384 0.54263,61.33671 13.03917,26.6133 46.35466,49.21333 84.38482,57.24369 13.76246,2.90603 26.87933,3.66107 47.06427,2.70912 59.209,-2.79241 97.72795,-21.98642 115.04254,-57.32571 l 7.03354,-14.35552 1.3973,-87.76851 c 1.32421,-83.175506 1.69571,-88.520316 7.0992,-102.134805 11.09361,-27.951125 33.48382,-45.956297 70.2374,-56.4816769 16.01186,-4.585422 27.11869,-5.2554053 101.68265,-6.1336746 l 83.70738,-0.985967 6.0648,7.1836187 c 20.5288,24.3158648 54.2098,74.3782058 54.2098,80.5756948 0,0.699564 -55.9177,0.608203 -124.26156,-0.203012 l -124.26157,-1.474959 -5.48319,5.483194 c -5.39436,5.394353 -7.20249,16.783707 -3.53624,22.274447 5.4587,8.17513 13.27467,8.64889 142.69019,8.64889 l 129.70756,0 3.96027,12.08407 c 4.93241,15.05039 12.26406,46.72493 11.08763,47.90136 -0.4812,0.48121 -63.12324,-4.80965 -139.20452,-11.75748 -156.29219,-14.27277 -150.18809,-14.48396 -150.18809,5.19636 0,7.68939 1.34833,10.89026 5.72404,13.58873 3.91712,2.41566 48.28698,7.29432 140.55682,15.45486 74.15803,6.5587 137.98101,12.52881 141.82883,13.26692 6.85912,1.31575 6.99566,1.69901 6.97673,19.58398 -0.0203,19.44387 -4.07421,60.07171 -6.20638,62.20388 -0.70398,0.70398 -63.91735,-15.5436 -140.47419,-36.10573 l -139.19422,-37.38573 -6.51382,4.84145 c -9.16515,6.81206 -10.38821,21.6606 -2.20623,26.78494 3.22765,2.02147 67.11562,20.03368 141.97326,40.02714 74.85764,19.99344 136.59569,36.73929 137.19567,37.21299 3.92142,3.09596 -26.69539,75.30884 -31.39454,74.04722 -1.5227,-0.4088 -54.02264,-26.78764 -116.66654,-58.61963 -62.64393,-31.83198 -116.16364,-57.87634 -118.9327,-57.87634 -8.70302,0 -15.5973,9.30237 -14.71967,19.86105 l 0.78094,9.39512 115.06381,58.51235 c 63.28509,32.18179 115.08759,59.46095 115.11667,60.62034 0.0666,2.65343 -27.43835,36.24239 -37.31854,45.57335 l -7.38776,6.97714 -78.74502,-61.26314 c -43.30975,-33.69473 -81.42647,-62.31821 -84.70379,-63.60774 -12.60896,-4.96124 -28.48417,11.56944 -21.74841,22.64636 1.44409,2.37478 36.88914,31.05502 78.76678,63.73385 41.87764,32.67884 76.49575,60.35938 76.92915,61.51227 1.63079,4.33826 -63.92173,44.53543 -68.25742,41.85584 -0.95027,-0.58731 -13.60214,-22.25189 -28.11521,-48.1435 -20.7658,-37.04653 -27.9173,-47.70933 -33.56843,-50.0501 -13.7794,-5.70763 -27.74927,7.5563 -22.40193,21.26992 1.22759,3.14822 13.2025,25.18575 26.6109,48.97228 27.32812,48.4801 27.07079,45.01996 4.1034,55.17567 -27.00174,11.93962 -31.46023,12.14968 -258.85352,12.19657 l -214.33324976,0.0442 0,-198.90663 z"
     id="path3336"
     inkscape:connector-curvature="0" /></svg>